<?xml version="1.0" encoding="utf-8"?>
<!-- Generator: Adobe Illustrator 25.3.1, SVG Export Plug-In . SVG Version: 6.00 Build 0)  -->
<svg version="1.1" id="Layer_1" xmlns="http://www.w3.org/2000/svg" xmlns:xlink="http://www.w3.org/1999/xlink" x="0px" y="0px"
	 viewBox="0 0 1280 900" style="enable-background:new 0 0 1280 900;" xml:space="preserve">
<style type="text/css">
	.st0{fill:#008184;}
	.st1{fill:#008284;}
	.st2{fill:#44555F;}
	.st3{fill:#455660;}
	.st4{fill:#4A5A64;}
</style>
<g>
	<path class="st0" d="M591.9,243.3c0,45-0.2,90,0.1,134.9c0.1,15.4-10.1,24.8-24.1,23.9c-9.5-0.6-19-0.1-28.5-0.1
		c-12.4,0-20.6-8.1-20.7-20.6c-0.1-18.7,0-37.3,0-56c0-12-5-17-16.9-17.1c-18.3-0.1-36.7-0.1-55,0c-11.9,0-16.6,4.9-16.7,16.7
		c0,54.6,0,109.3,0,163.9c0,11.7-5.1,18.8-15.4,21.5c-1.6,0.4-3.3,0.5-4.9,0.5c-10.5,0-21,0-31.5,0c-12.2,0-20.3-7.6-21.3-19.8
		c-0.1-0.8,0-1.7,0-2.5c0-91.1,0-182.2,0-273.4c0-11.5,5.4-18.9,15.3-21.8c1.7-0.5,3.3-0.5,4.9-0.5c11,0,22-0.1,33,0
		c11.2,0.1,19.5,8.1,19.8,19.3c0.2,8.7,0.2,17.3,0,26c-0.1,8.8,4.6,16.2,15.9,15.9c18.8-0.5,37.6-0.1,56.5-0.1
		c11.4,0,16.2-4.9,16.2-16.5c0-23.8,0-47.6,0-71.5c0-20.2,0-40.3,0-60.5c0-14,7.7-21.6,21.5-21.6c9.5,0,19,0.5,28.5-0.1
		c14.7-0.9,23.3,9.5,23.2,23.5c-0.3,37-0.1,74-0.1,110.9C591.9,226.7,591.9,235,591.9,243.3z"/>
	<path class="st0" d="M630,351.8c0-45.3,0.3-90.6-0.2-135.9c-0.1-12.9,8.7-23.9,23.2-22.9c10,0.7,20,0.1,30,0.1
		c11.3,0.1,20,8.6,20,19.8c0,92.8,0,185.6,0,278.4c0,11.2-8.7,19.7-20,19.8c-10.7,0.1-21.3,0-32,0c-12.6,0-21-8.3-21-20.8
		C630,444,630,397.9,630,351.8z"/>
	<path class="st0" d="M827.3,193.1c22.7,0,45.3,0,68,0c12.8,0,20.7,8,20.7,20.9c0,10.7,0,21.3,0,32c-0.1,11.5-8.3,19.8-19.7,20.1
		c-5.5,0.1-11,0-16.5,0c-10.6,0-15.8,5.3-15.8,16c0,32.3-0.4,64.6,0.2,96.9c0.3,15.5-11,23.9-23,23.2c-9.8-0.6-19.6-0.1-29.5-0.1
		c-12.2,0-20.7-8.5-20.7-20.7c0-33.1-0.2-66.3,0.1-99.4c0.1-9-6.4-16.6-16-16c-7.1,0.4-14.3,1.1-21.4-0.7
		c-8.7-2.2-14.6-9.4-14.7-18.4c-0.2-11.7-0.2-23.3,0-35c0.2-10.6,8.7-18.7,19.3-18.8C781.3,193,804.3,193.1,827.3,193.1z"/>
	<path class="st1" d="M555,511c-5.7,0-11.3,0.1-17,0c-10-0.1-18.3-7.4-19.1-17.4c-0.9-12.5-0.9-25-0.1-37.4c0.7-10.5,9-18,19.5-18.2
		c11.2-0.2,22.3-0.2,33.5,0c10.3,0.2,18.5,7.5,19.3,17.8c1,12.8,1.1,25.6-0.1,38.4c-0.9,9.4-9.2,16.6-18.6,16.7
		C566.6,511.1,560.8,511,555,511z"/>
	<path class="st0" d="M629.9,120.6c0-5.8-0.1-11.6,0-17.5c0.2-10.4,8.7-18.9,19.1-19c11.1-0.1,22.3-0.1,33.4,0
		c11.6,0,20.3,8.3,20.5,19.9c0.2,11,0.2,22,0,32.9c-0.2,11.4-9,20.1-20.4,20.1c-10.8,0.1-21.6,0.1-32.4,0
		c-11.6-0.1-20.1-8.5-20.2-20C629.9,131.6,629.9,126.1,629.9,120.6z"/>
	<path class="st0" d="M790.9,475c0-5.7,0-11.3,0-17c0.1-11,8.3-19.7,19.3-20c11.3-0.3,22.6-0.2,33.9,0c11.1,0.2,19.6,9.1,19.7,20.2
		c0.1,11,0.1,22,0,32.9c-0.1,11.3-8.7,19.7-20,19.8c-11.1,0.1-22.3,0.1-33.4,0c-11.1-0.1-19.4-8.5-19.5-19.5
		C790.9,486,790.9,480.5,790.9,475z"/>
	<path class="st2" d="M1120.4,588.9c7,0,13.6,0,20.2,0c2.3,0,2.7,1.5,3.1,3.2c1,4.5,2,8.9,3,13.5c2.5-0.9,2.4-3,3-4.6
		c3-7.4,7.4-13.1,16.2-13.3c10.3-0.3,19.2,2,24.5,11.9c2.1,4,3.2,8.4,3.7,12.9c1.5,12.1,1.4,24.2-1.3,36.2
		c-4.1,18.4-18.7,20.8-33.6,19c-2.2-0.3-3.4-1.7-3.3-4.2c0.1-3.8,0-7.6,0-12c4.1,2.4,8.1,3,11.9,0.4c3.6-2.4,3.9-6.5,4.1-10.3
		c0.4-10.1,1.2-20.3-0.8-30.4c-0.9-4.3-2.5-7.9-7.6-8.6c-5.3-0.7-8,2.3-9.9,6.6c-4.3,9.4-5.3,19.5-6.4,29.6
		c-0.9,7.8-1.6,15.6-2,23.4c-0.2,3-1.1,4.1-4.1,3.9c-4.7-0.2-9.3-0.2-14,0c-3.3,0.2-4.3-0.7-3.8-4.2c1.8-12.8,3.1-25.8,5.2-38.6
		c1.1-6.6-0.7-12.5-2.4-18.6C1124.3,599.7,1122.3,594.6,1120.4,588.9z"/>
	<path class="st2" d="M301,627.5c0-11.3,0.1-22.7-0.1-34c0-3.3,0.6-4.7,4.3-4.6c11.8,0.2,23.6,0.1,35.5,0.1c1.7,0,3.3,0.1,5,0.3
		c11.5,1.4,17.5,6.7,17.9,18.3c0.7,18.6,0.3,37.3,0.4,55.9c0,2.3-1,2.8-3,2.7c-5.3-0.1-10.7-0.2-16,0c-3.2,0.1-3.9-1.1-3.8-4
		c0.1-15.7,0.1-31.3,0-47c0-9.5-6.8-14.1-16.1-11.2c-2.5,0.8-1.5,2.7-1.5,4.1c-0.1,16.5,0,33,0,49.5c0,8.5,0,8.5-8.3,8.5
		c-3,0-6-0.3-9,0.1c-4.2,0.5-5.8-0.6-5.6-5.3C301.3,649.8,301,638.6,301,627.5z"/>
	<path class="st2" d="M863.2,603.3c0.4-2.2,0.7-4.3,1.2-6.4c1.7-7.9,4.2-9.9,12.5-9.7c11.8,0.4,17.6,5.1,20,16.8
		c2.7,13.3,2.7,26.9,0.5,40.2c-2.7,16.3-8.8,21.8-25.2,24c-6.3,0.9-12.6,0.7-18.9-0.5c-12.4-2.5-20.4-11-21.1-24.9
		c-0.9-17.1-0.3-34.3-0.5-51.4c0-2,0.8-2.6,2.6-2.5c5.7,0.1,11.3,0.2,17,0c3.4-0.1,2.7,2.1,2.7,4c0,14.3,0,28.6,0,42.9
		c0,4.2,0.1,8.3,1.4,12.3c1.6,4.9,4.8,6.9,10.3,6.7c5-0.1,8.5-2.4,9.2-7.4c1.8-12.9,1.8-25.9-0.1-38.7
		C874.1,602.7,870.3,601.3,863.2,603.3z"/>
	<path class="st2" d="M188.1,666.1c5.4-16.2,10.5-31.8,15.7-47.4c1.3-3.8,2.4-7.6,3.8-11.3c1-2.8,0.2-3.5-2.6-3.4
		c-8.5,0.1-17-0.1-25.5,0.1c-3.1,0.1-4.4-0.6-4.3-4.1c0.2-10.3,0.2-20.6,0-31c-0.1-3.2,1-4,4-3.8c4.7,0.2,9.3,0.2,14,0
		c3.2-0.1,4.5,0.7,4.3,4.1c-0.3,5.3,0.1,10.7-0.1,16c-0.1,2.8,0.9,3.7,3.7,3.7c8.7-0.2,17.3,0.1,26-0.1c3.3-0.1,4.2,1,4.2,4.2
		c0.1,6.9-0.7,13.4-3.1,20c-5.8,16.3-11.2,32.7-16.5,49.1c-1,3.1-2.4,4.2-5.6,4C200.2,665.9,194.4,666.1,188.1,666.1z"/>
	<path class="st2" d="M579.9,584.7c0-5.2,0.1-10.3-0.1-15.5c-0.1-2.9,0.6-4.2,3.8-4.1c5,0.3,10,0.2,15,0c2.7-0.1,3.5,1,3.4,3.5
		c-0.1,5.7,0.1,11.3-0.1,17c-0.1,2.7,0.9,3.4,3.4,3.3c8.5-0.1,17,0.2,25.5-0.2c4.1-0.2,4.8,1.3,4.9,5c0.1,6.4-0.8,12.5-2.9,18.5
		c-5.8,16.6-11.4,33.3-16.9,50c-0.9,2.9-2.2,4-5.3,3.8c-4.6-0.3-9.3-0.3-14,0c-3.9,0.2-3.9-1.1-2.8-4.3c6-17.7,11.7-35.6,17.7-53.3
		c1.3-3.7,0.9-4.8-3.3-4.7c-8.3,0.3-16.6,0-25,0.1c-2.6,0-3.5-0.7-3.4-3.3C580,595.4,579.9,590.1,579.9,584.7z"/>
	<path class="st2" d="M1100.9,627c0.1,7.1,0.1,14.3-1.1,21.4c-1.7,10.6-6.8,16.3-17.5,17.2c-9.2,0.8-18.7,1.3-27.9,0.2
		c-5.8-0.7-1.4-6.8-2.5-10.3c-0.5-1.7-1.1-4.5,2.7-4.4c4.2,0.2,8.3,0.2,12.5,0c6.7-0.3,9.9-2.8,10.6-9.5c1-9.6,1-19.3,0-28.9
		c-0.6-5.9-3.5-8.1-9.8-8.5c-4.3-0.3-8.7-0.2-13-0.1c-2.4,0.1-3-0.7-3.1-3.1c-0.6-12-0.6-12.1,11.3-12c6.8,0,13.6-0.4,20.4,0.8
		c9.6,1.7,14.5,6.6,16.2,16.3C1101,613,1101,620,1100.9,627z"/>
	<path class="st2" d="M808.8,627.6c0.1,7.7,0.3,15.3-1.6,22.8c-2.4,9.8-7.2,14.4-17.2,15.2c-9.1,0.7-18.3,0.4-27.5,0.5
		c-0.3,0-0.8,0.1-1-0.1c-3.7-3.7-0.9-8.3-1.7-12.4c-0.4-2.4,1.3-2.6,3.1-2.5c4,0,8,0.1,12,0c6.5-0.3,9.7-2.7,10.5-9.1
		c1.2-9.8,1.2-19.6,0-29.4c-0.7-6-3.5-8.1-9.8-8.5c-4.3-0.3-8.7-0.1-13-0.1c-1,0-2.7,0.5-2.8-1.2c-0.2-4.2-0.1-8.3,0-12.5
		c0-1.4,1.2-1.4,2.2-1.3c9.6,0.2,19.3-0.8,28.9,0.9c10.5,1.8,15.1,6.8,16.8,17.4C808.9,614,808.8,620.8,808.8,627.6z"/>
	<path class="st2" d="M488,646.1c-1.7,4.3-3.2,8.6-5.3,12.7c-2.1,4.3-4.6,8.5-9.6,10.3c-2.8,1-4.5,1-4.2-2.6c0.2-2,0.2-4,0-6
		c-0.5-6.9,0.2-12.2,7.4-16.7c11.9-7.5,13.3-20.4,11.6-33.3c-0.7-5.1-4.8-6.2-9.3-6.4c-8.4-0.3-8.1-0.3-8.6-8.8
		c-0.3-5.3,1.4-6.8,6.5-6.4c6.8,0.6,13.6-0.4,20.4,1.1c6.6,1.4,10.4,5.3,12,11.8c1.1,4.6,1.1,9.2,1.1,13.9c0.1,16-0.7,32,3.7,47.6
		c0.6,2.1,0,3-2.4,2.9c-4.7-0.1-9.4-0.5-14,0.1c-4.7,0.6-5.7-1.9-6.2-5.5c-0.7-4.9-1.3-9.8-2-14.7
		C488.9,646.1,488.4,646.1,488,646.1z"/>
	<path class="st2" d="M83.3,638.9c0-15.3,0.1-30.6-0.1-45.9c0-3.3,0.9-4.3,4.2-4.2c5,0.3,10,0.2,15,0c2.7-0.1,3.8,0.6,3.8,3.6
		c-0.1,31.3-0.1,62.5,0,93.8c0,3-1,3.6-3.8,3.6c-5.1-0.2-10.3-0.3-15.5,0c-3.3,0.2-3.8-1.2-3.7-4C83.3,670.2,83.3,654.6,83.3,638.9z
		"/>
	<path class="st2" d="M982.1,639c0,15.5-0.1,31,0.1,46.5c0,3.5-1,4.6-4.5,4.4c-4.5-0.3-9-0.3-13.5,0c-3.8,0.3-4.7-1-4.7-4.7
		c0.2-27.6,0.1-55.3,0.1-82.9c0-3.2,0.2-6.3-0.1-9.5c-0.3-3.2,1-4,4-3.8c4.8,0.2,9.7,0.3,14.5,0c3.3-0.2,4.2,0.9,4.2,4.1
		C982,608.3,982.1,623.6,982.1,639z"/>
	<path class="st2" d="M737.6,633.2c0,9.5-0.1,19,0.1,28.5c0.1,3.3-0.7,4.7-4.3,4.6c-9.3-0.3-18.6-0.2-28,0c-2.5,0-3.8-0.6-3.4-3.3
		c0.1-0.5,0-1,0-1.5c-0.1-9.7-0.1-9.8,9.5-10.2c2.6-0.1,3.4-0.9,3.4-3.5c-0.1-11.5,0-23-0.1-34.5c-0.1-7.5-1.6-9-9.1-9.2
		c-2.8-0.1-3.6-0.9-3.7-3.7c-0.3-11.4-0.4-11.4,10.9-11.4c3.3,0,6.7,0,10,0.2c10.2,0.6,13.9,4,14.2,14.1c0.3,10,0.1,20,0.1,30
		C737.3,633.2,737.4,633.2,737.6,633.2z"/>
	<path class="st2" d="M81.9,752.4c0-12.8,0.2-25.6-0.1-38.5c-0.1-3.8,1.5-4.2,4.6-4.2c3.1,0,4.9,0.3,4.7,4.2c-0.3,9.5,0,19-0.2,28.5
		c-0.1,3.3,0.6,4.7,4.3,4.5c6.6-0.3,13.3-0.2,20,0c2.9,0.1,3.7-1,3.6-3.7c-0.1-9.8,0.1-19.6-0.1-29.5c-0.1-3.6,1.4-4,4.4-4
		c2.9,0.1,4.9-0.2,4.9,4c-0.2,25.8-0.2,51.6,0,77.4c0,4.3-2.3,3.7-5,3.9c-3.2,0.2-4.3-0.7-4.2-4.1c0.2-10.3,0-20.6,0.1-31
		c0.1-3.3-0.9-4.3-4.2-4.2c-6.5,0.3-13,0.2-19.5,0c-3.2-0.1-4.3,0.7-4.2,4.1c0.2,10.1-0.1,20.3,0.2,30.5c0.1,3.8-1.1,4.7-4.8,4.8
		c-3.8,0.1-4.7-1.1-4.6-4.8C82,777.7,81.9,765.1,81.9,752.4z"/>
	<path class="st2" d="M680,627.9c0,11.3-0.1,22.6,0.1,33.9c0.1,3.6-1.1,4.6-4.6,4.4c-4.8-0.3-9.7-0.2-14.5,0
		c-2.9,0.1-4.1-0.6-4.1-3.8c0.1-23.3,0.1-46.6,0-69.9c0-2.9,1.1-3.7,3.8-3.6c5.2,0.2,10.3,0.2,15.5,0c3.2-0.2,3.9,1.1,3.9,4
		C679.9,604.6,680,616.2,680,627.9z"/>
	<path class="st2" d="M536.3,626.9c0-11.3,0.1-22.6-0.1-33.9c-0.1-3.3,0.9-4.3,4.2-4.2c5,0.3,10,0.2,15,0c2.8-0.1,3.8,0.7,3.8,3.6
		c-0.1,23.4-0.1,46.9,0,70.3c0,2.7-0.9,3.4-3.4,3.3c-5.3-0.2-10.6-0.2-16,0c-3,0.1-3.5-1.2-3.5-3.8
		C536.3,650.6,536.3,638.7,536.3,626.9z"/>
	<path class="st2" d="M132,627.5c0-11.3,0.2-22.6-0.1-33.9c-0.1-3.8,1.1-4.9,4.8-4.7c5,0.3,10,0.2,15,0c2.3-0.1,3.2,0.6,3.2,3.1
		c-0.1,23.6-0.1,47.3,0,70.9c0,2.7-1,3.4-3.5,3.3c-5.3-0.1-10.7-0.2-16,0c-3.1,0.1-3.5-1.2-3.5-3.8C132.1,650.8,132,639.1,132,627.5
		z"/>
	<path class="st2" d="M1029.2,628c0,11.3-0.1,22.6,0.1,33.9c0,3.1-0.5,4.5-4,4.3c-5-0.3-10-0.2-15,0c-2.4,0.1-3.6-0.3-3.6-3.2
		c0.1-23.6,0.1-47.2,0-70.9c0-2.8,1.1-3.3,3.5-3.2c5.2,0.1,10.3,0.2,15.5,0c2.9-0.1,3.6,0.9,3.6,3.7
		C1029.2,604.4,1029.2,616.2,1029.2,628z"/>
	<path class="st2" d="M252.9,626.9c0-11.3,0.1-22.6-0.1-33.9c-0.1-3.3,0.9-4.3,4.1-4.2c5,0.3,10,0.2,15,0c2.5-0.1,3.5,0.5,3.5,3.3
		c-0.1,23.6-0.1,47.2,0,70.9c0,2.3-0.7,3.2-3.1,3.2c-5.3-0.1-10.7-0.2-16,0c-3.1,0.1-3.5-1.2-3.5-3.8
		C252.9,650.6,252.9,638.8,252.9,626.9z"/>
	<path class="st2" d="M905.8,743.5c3.3-7.5,9.3-9.3,16.4-8.7c5.5,0.5,8.8,3.5,10.6,8.4c1,2.8,1.3,5.8,1.3,8.8c0,13-0.1,26,0.1,38.9
		c0,3.3-0.9,4.2-4.1,4.2c-3.5,0-4.1-1.3-4.1-4.4c0.1-12.6,0.2-25.3,0-37.9c-0.1-8-4.1-11.6-11.5-10.9c-4.9,0.5-7.2,3.6-8.5,7.9
		c-1.4,4.5-1.1,9.2-1.1,13.9c0,9.2-0.2,18.3,0.1,27.5c0.1,3.7-1.6,3.8-4.5,4c-3.2,0.2-3.8-1.1-3.8-4c0.1-25.8,0.1-51.6,0-77.4
		c0-3.1,0.9-4,3.9-3.9c3,0.1,4.4,0.5,4.3,4c-0.3,9.6-0.1,19.1-0.1,28.7C905.1,742.8,905.4,743.1,905.8,743.5z"/>
	<path class="st3" d="M787.8,757.2c0,11.3-0.2,22.6,0.1,33.9c0.1,4.1-2,4-4.9,4c-3.1,0.1-4.8-0.2-4.8-4.1c0.2-22.5,0-44.9,0.2-67.4
		c0-3.9-1-5.3-4.9-5c-4.1,0.3-8.3-0.1-12.5,0.1c-3.6,0.2-3.1-2.1-3-4.2c0.1-2.1-1-4.8,3-4.8c14.6,0.1,29.3,0.1,43.9,0
		c4,0,3,2.6,3.1,4.8c0.1,2.1,0.5,4.4-3,4.2c-4-0.2-8,0.2-12-0.1c-4-0.4-5.4,0.7-5.3,5.1C788,734.9,787.8,746,787.8,757.2z"/>
	<path class="st2" d="M1150.6,735.8c2.1,0,3.6,0.1,5,0c3.1-0.3,4.6,0.5,5.4,3.9c3.3,13.4,7,26.7,10.6,40c0.4,1.4,0.3,3,2.2,4.3
		c2.8-10.4,5.5-20.6,8.2-30.8c1.2-4.5,2.4-9,3.6-13.5c0.9-3.3,5.5-5.5,8.3-3.8c1.8,1,0.5,2.6,0.2,3.9c-3.9,13.2-7.8,26.4-11.7,39.7
		c-3.3,11.3-6.9,22.6-9.9,33.9c-1.1,4-3.1,4.9-6.8,4.6c-2.1-0.2-3.3-0.5-2.3-2.9c0.2-0.5,0.3-1,0.5-1.4c5.6-12.8,3.7-25.2-1-38
		C1158.2,762.8,1154.8,749.5,1150.6,735.8z"/>
	<path class="st2" d="M408.8,796.2c-10.4-0.1-16.3-4.8-17.5-14c-0.2-1.6-1.8-4.7,1.8-4.4c2.5,0.2,6.4-2.5,7.4,2.9
		c1.3,6.9,4.8,9.2,11.3,8.1c3.6-0.6,6.1-2.6,7.1-6.2c0.9-3.5,0.4-6.8-2.7-8.9c-3.1-2.2-6.5-4.1-9.8-5.9c-3.4-1.8-6.7-3.7-9.4-6.5
		c-4.8-4.9-5.9-10.6-3.4-17c2.9-7.4,10.7-10.9,21-9.4c7,1,12,5.8,12.6,12.2c0.1,1.4,1.2,4.1-1.6,3.7c-2.4-0.4-6.1,2.6-7.4-2.2
		c-1.7-6.4-5.6-8.6-11.5-6.9c-5.9,1.7-7.9,8.6-3.5,13c1.5,1.5,3.4,2.6,5.3,3.7c3.3,1.9,6.8,3.6,10,5.6c8.6,5.4,11.1,11.9,8.4,21.2
		C424.7,792.4,418.4,796.3,408.8,796.2z"/>
	<path class="st2" d="M355.5,743.3c3.4-6.8,8.7-9.3,15.7-8.6c6.6,0.6,10.2,3.8,11.6,10.3c1.6,7.4,0.8,14.9,0.9,22.4
		c0.1,8-0.1,16,0.1,24c0.1,3.3-1.3,3.8-4.1,3.8c-2.8,0-4.1-0.5-4.1-3.8c0.2-11.5,0.1-23,0.1-34.5c0-2.2-0.2-4.3-0.5-6.5
		c-0.5-4.9-3-8-8.1-8.5c-5.7-0.5-9.5,1.7-11.3,6.9c-1.4,4-1.6,8.1-1.6,12.3c-0.1,10-0.1,20,0,30c0,2.9-0.5,4.2-3.8,4
		c-2.9-0.1-4.4-0.3-4.4-4c0.1-17.3,0-34.6-0.2-51.9c0-3.1,1.2-3.7,3.8-3.4c2.1,0.3,5-1.1,4.6,3.1
		C354.2,740.1,353.8,741.5,355.5,743.3z"/>
	<path class="st2" d="M954.2,742.6c4.3-5,8.6-8.2,15.2-8c8.1,0.3,12.2,3.6,13.5,11.7c1.4,8.8,0.6,17.6,0.8,26.4
		c0.1,6.3-0.2,12.7,0.1,19c0.2,3.8-2.1,3.2-4.5,3.4c-2.6,0.2-3.9-0.4-3.8-3.5c0.2-11.3,0.1-22.6,0-34c0-2.5-0.2-5-0.5-7.5
		c-0.4-4.5-2.8-7.4-7.4-8.2c-5.3-0.9-9.6,1.2-11.6,5.7c-1.7,3.9-2,8-2.1,12.2c0,10.5-0.2,21,0.1,31.5c0.1,3.4-1.3,3.7-4.1,3.7
		c-2.9,0-4.1-0.6-4-3.8c0.1-17.1,0-34.3-0.2-51.4c0-2.8,0.1-4.3,3.6-4.1c2.9,0.2,5.4-0.1,4.7,4C954,740.7,954.2,741.6,954.2,742.6z"
		/>
	<path class="st2" d="M265,742.8c3.1-4.8,6.9-8,12.8-8.1c9.2-0.2,14.5,3.7,14.9,12.8c0.6,14.9,0.3,29.9,0.5,44.9
		c0,3.8-2.7,2.4-4.5,2.7c-2.8,0.4-3.7-0.9-3.7-3.7c0.1-13,0.1-26,0-38.9c-0.1-7.6-4-11.2-11.3-10.5c-3.6,0.3-6.3,2.1-7.7,5.5
		c-1.4,3.2-2,6.6-2,10.2c0.1,11.1-0.1,22.3,0.1,33.4c0.1,3.5-1.3,4.1-4.4,4.1c-3.1,0-3.9-0.9-3.9-3.9c-0.1-17.6,0.8-35.3-0.5-52.9
		c-0.2-2.1,0.9-2.9,2.6-2.4c2.1,0.5,5.3-2,6.1,2.1c0.2,1.3,0,2.6,0,4C264.4,742.2,264.7,742.5,265,742.8z"/>
	<path class="st2" d="M545.4,787.6c-4.4,5.5-8.6,8.8-14.7,8.6c-8.2-0.2-13.4-4.5-13.6-12.8c-0.4-15-0.1-30-0.2-45
		c0-3.9,2.7-2.3,4.5-2.6c2.3-0.3,3.7,0.1,3.6,3c-0.2,12-0.1,24,0,36c0,2,0,4,0.3,6c0.8,4.6,3.1,8.1,8.3,8.6
		c4.5,0.4,8.6-2.1,10.5-6.8c1.4-3.3,1.5-6.8,1.5-10.3c0-10.5,0.1-21,0-31.5c0-3-0.3-5.2,4.2-5.2c4.7,0,3.9,2.7,4,5.4
		c0.1,16.8,0.1,33.6,0.2,50.4c0,2.4-0.2,3.9-3.1,3.5c-2.3-0.3-5.8,1.3-5.3-3.4C545.8,790.8,545.6,790,545.4,787.6z"/>
	<path class="st2" d="M425.8,612.9c0-6.7,0.1-13.3-0.1-20c-0.1-2.9,0.5-4.2,3.8-4c5.1,0.3,10.3,0.2,15.5,0c2.7-0.1,3.3,0.9,3.3,3.4
		c-0.1,12.3-0.1,24.6,0,37c0,2.8-1.2,3.8-3.6,4.2c-5.1,0.9-10.2,1.7-15.2,2.9c-3,0.7-3.8-0.1-3.8-3
		C425.9,626.5,425.8,619.7,425.8,612.9z"/>
	<path class="st2" d="M849.6,766.9c0.2-8.6,0-15.5,2.7-21.9c3.4-8.1,11.6-11.9,21.6-10c6.8,1.2,11.5,7.1,12,15.2
		c0.1,1.6,1.2,4.2-2,3.9c-2.3-0.2-5.7,2-6.6-2.8c-1.3-7.6-3.4-9.5-8.6-9.3c-5.4,0.2-8.7,3.5-9.8,10c-1.6,9.1-1.1,18.2,0.4,27.3
		c0.6,3.7,2,7.1,5.7,8.8c6,2.8,11-0.5,12.7-8.3c0.4-1.8-0.2-3.9,3-4.1c5.4-0.2,6.1,0.2,5.3,5.6c-1.2,8-7.2,14-14.7,14.7
		c-10.2,0.9-16.5-2.8-19.4-11.7c-0.7-2.2-1.4-4.5-1.6-6.8C849.8,773.5,849.7,769.3,849.6,766.9z"/>
	<path class="st2" d="M714,768.4c0-7.3-0.2-14.7,0.1-22c0.1-3.3-0.9-4.6-4.2-4.2c-2.3,0.3-4.1,0.2-4.1-3.2c0-3.3,1.6-3.6,4-3.2
		c3.7,0.6,4.5-1.2,4.3-4.5c-0.2-3.3-0.1-6.7,0.2-10c0.8-8.3,9.1-13.7,17.1-11.7c1.9,0.5,1.8,1.7,1.7,3c-0.1,1.3,0.8,3.2-1.7,3.4
		c-3.4,0.3-6.9,0.7-8.3,4.4c-1.7,4.5-1.3,9.3-0.7,13.8c0.4,2.9,3.6,1,5.5,1.6c1.7,0.5,4.4-1.4,5,1.5c0.6,2.5,0.9,5.6-3.6,5
		c-0.7-0.1-1.3,0.1-2,0c-4-0.6-5.4,0.8-5.4,5.1c0.3,14.5,0,29,0.2,43.5c0,3.1-0.6,4.4-4,4.3c-3.3-0.1-4.3-1-4.2-4.3
		C714.1,783.4,714,775.9,714,768.4z"/>
	<path class="st2" d="M498,720.6c0,3.7,0.2,7.4-0.1,10.9c-0.3,3.7,1.1,4.8,4.5,4.3c1.3-0.2,2.7,0.1,4-0.1c2.6-0.3,3.5,0.7,3.4,3.4
		c-0.1,2.4-0.9,3.1-3.2,3.2c-8.7,0.4-8.7,0.5-8.7,9.5c0,9.3,0,18.6,0,28c0,6.7,2.3,8.9,9.1,8.7c1.2,0,2.9-1,2.8,1.3
		c-0.1,1.8,1.3,4.4-1.5,5.1c-4.7,1.3-9.6,1.7-14.1-0.7c-3.6-1.9-4.5-5.5-4.4-9.4c0.1-12.5-0.1-25,0.1-37.5c0.1-3.6-0.5-5.8-4.8-5.1
		c-2.4,0.4-4.4,0.3-4.4-3.4c0.1-3.6,2.1-3.3,4.2-3c4.1,0.6,5.1-1.1,4.9-5C489.7,723.3,490,723.3,498,720.6z"/>
	<path class="st2" d="M577.2,720.7c0,3.9,0.1,7.7,0,11.4c-0.1,2.8,0.9,4,3.7,3.7c1.8-0.2,3.7,0.1,5.5-0.1c2.3-0.2,2.8,1,2.7,3
		c-0.1,1.9,0.2,3.6-2.7,3.6c-2.9,0-6.8-1.5-8.6,0.8c-1.8,2.3-0.6,6.1-0.6,9.2c-0.1,8.8-0.1,17.7,0,26.5c0.1,7.7,1.9,9.5,9.4,9.5
		c1.5,0,2.9-0.2,2.5,1.8c-0.3,1.7,1.4,3.9-1.7,5c-10.5,3.7-18.3-1.6-18.3-12.7c0-11.8-0.2-23.6,0.1-35.5c0.1-3.8-0.9-5.1-4.7-4.7
		c-1.6,0.2-4.2,1.2-4.4-2.3c-0.1-2.7,0.2-4.7,3.6-4.1c4.3,0.8,6.3-0.9,5.4-5.3C567.9,724.3,571.5,721.9,577.2,720.7z"/>
	<path class="st2" d="M448.2,720.8c0,2.7,0,5.4,0,8c0.1,8.1-0.9,6.9,6.8,7c0.8,0,1.7,0.1,2.5,0c2.4-0.3,2.7,1.1,2.6,3
		c0,2,0,3.3-2.8,3.5c-9.1,0.6-9.1,0.8-9.1,10.1c0,8.8-0.1,17.7,0,26.5c0.1,7.6,1.9,9.4,9.5,9.4c1.6,0,2.8,0,2.4,1.8
		c-0.3,1.7,1.4,3.9-1.7,4.9c-10.7,3.6-18.2-1.5-18.2-12.8c0-11.5-0.2-23,0.1-34.5c0.1-4.1-0.5-6.5-5.3-5.6c-3.1,0.6-4-1-3.9-3.9
		c0.1-3.5,2.6-2.6,4.2-2.4c4.1,0.5,5-1.2,4.9-5C440.1,723.2,440.3,723.2,448.2,720.8z"/>
	<path class="st2" d="M335.2,752.9c0,12.6-0.1,25.3,0.1,37.9c0.1,3.7-1.3,4.4-4.6,4.3c-3.1-0.1-4.8-0.3-4.8-4.2
		c0.2-25.6,0.2-51.2,0-76.9c0-3.8,1.6-4.2,4.7-4.3c3.2,0,4.7,0.4,4.6,4.2C335,727,335.2,739.9,335.2,752.9z"/>
	<path class="st3" d="M196.9,752.9c0,12.7-0.1,25.3,0.1,38c0,3.2-0.8,4.3-4.1,4.3c-3.2,0-4.2-0.9-4.2-4.2c0.1-25.6,0.1-51.3,0-76.9
		c0-3.2,0.8-4.3,4.1-4.3c3.3,0,4.2,0.9,4.2,4.2C196.8,726.9,196.9,739.9,196.9,752.9z"/>
	<path class="st2" d="M1042.8,752.2c0-12.8,0.1-25.6-0.1-38.4c0-3,0.7-4.1,3.8-4c3,0.1,4.5,0.4,4.4,4c-0.1,25.8-0.2,51.6,0,77.3
		c0,3.7-1.6,3.8-4.5,4c-3.3,0.2-3.8-1.2-3.8-4C1042.9,778.1,1042.8,765.1,1042.8,752.2z"/>
	<path class="st2" d="M475,765.9c0,8.5-0.1,17,0.1,25.4c0.1,3.4-1.5,3.7-4.2,3.7c-2.8,0.1-4.1-0.5-4-3.8c0.2-17.3,0.2-34.6,0-51.9
		c0-3.3,1.2-3.8,4.1-3.7c2.8,0,4.3,0.4,4.2,3.8C474.9,748.3,475,757.1,475,765.9z"/>
	<path class="st4" d="M466.3,714.7c-0.9-3.9,0.6-4.9,4.6-5.1c4.6-0.2,4.4,2.1,4.6,5.4c0.4,4.3-1.6,4.7-5.2,4.9
		C466.1,720.1,465.8,718,466.3,714.7z"/>
	<path class="st2" d="M1144.7,740.3c0-3.4-0.8-4.4-4.3-4.6c-5.2-0.4-3.7,3.3-4.4,6.4c-10.3-10.9-21.9-9.5-26.4,3.1
		c-4.7,13.4-4.5,27.2,0.3,40.6c3.3,9.3,14.4,12.2,21.8,6.5c1.5-1.2,2.8-2.5,4.3-4c0,5.2,0.3,10.2-0.1,15.1c-0.4,4.5-3.3,7.2-7.9,7.6
		c-4.2,0.4-7.6-0.7-9.3-5c-1.2-2.9-6.3-5-8.7-3.2c-2.5,1.8-0.8,4.4,0,6.7c0.9,2.4,2.6,4.3,4.8,5.6c7.4,4.2,15.1,3.7,22.5,0.4
		c6.7-3,7.1-9.5,7.2-15.8C1144.7,779.9,1144.6,760.1,1144.7,740.3z M1135.3,779.8c-1.5,5.4-4.7,8-9.4,7.9c-5.2-0.1-7.9-3.2-9-7.8
		c-2.2-9.3-2.5-18.8-0.8-28.2c1.2-6.6,4.8-9.9,10-9.8c5.4,0.1,8.9,3.8,9.8,10.6c0.5,4.1,0.7,8.3,1.1,12.4
		C1136.7,770,1136.6,775,1135.3,779.8z"/>
	<path class="st2" d="M838.1,777.8c-3.3,0.1-7.2-1.6-8.2,4.2c-0.8,4.6-4.4,7.1-9.5,7c-4.9-0.1-7.7-2.6-9-7.1
		c-1-3.5-1.4-7.2-1.4-10.8c0-2.1,0.7-3,2.9-2.9c4.2,0.1,8.3,0,12.5,0c4,0,8-0.1,12,0c2.1,0.1,3-0.7,2.9-2.9
		c-0.3-5.5,0.1-11-1.1-16.4c-2.2-9.7-6.9-13.9-16.4-14.2c-11-0.4-17.1,3.5-19.6,13c-2.7,9.9-2.5,20.1-1.2,30.2
		c1.8,14.1,9.2,19.8,23.2,18.1c8.1-1,14-7.2,14.6-15.3C839.8,779.4,840.1,777.7,838.1,777.8z M814.3,744c3.1-3.2,6.9-2.6,10.7-1.8
		c1.6,0.4,2.8,1.7,3.7,3.1c0.4,0.7,0.8,1.5,1.1,2.2c1.3,4.2,2.8,9,0.9,12.5c-1.4,2.7-6.5,0.4-9.3,0.9c-1,0-1.5,0.1-2,0
		c-3-0.5-6.5,1.4-8.9-1.1C808.8,758.3,812.1,746.2,814.3,744z"/>
	<path class="st2" d="M626,777.6c-3.6,0-3.3,2.4-4.1,4.4c-1.6,4.5-4.6,7-9.7,6.9c-4.9-0.1-7.7-2.7-8.9-7.2c-1-3.4-1.2-6.8-1.3-10.4
		c-0.1-2.7,1-3.4,3.5-3.3c3.8,0.2,7.7,0,11.5,0c4,0,8-0.1,12,0c2.2,0.1,3.3-0.5,3.3-3c-0.2-6,0-12-1.5-17.9
		c-1.9-7.6-6.4-11.7-13.7-12.5c-10.4-1.1-17.9,1.7-20.6,9.3c-5.1,14.2-5.1,28.8,0.2,43c2.8,7.5,9.2,9.9,19.7,9
		c7.6-0.7,12.7-4.8,14.7-12.1C632.6,777.9,632.2,777.7,626,777.6z M606.2,744c3.1-3.2,7-2.6,10.7-1.8c2,0.5,3.4,2.1,4.1,4
		c0.7,1.9,1.3,3.8,1.7,5.7c1.6,9.1,1.6,9.1-7.5,9.1c-0.8,0-1.7,0-2.5,0c-0.5,0-1,0.1-1.5,0c-3-0.5-6.5,1.4-8.9-1.1
		C600.8,758.4,604.1,746.2,606.2,744z"/>
	<path class="st2" d="M1032.2,746.4c-2.3-8.3-8.3-11.8-18.1-11.7c-9.6,0.1-15.4,3.9-17.9,12.2c-1.9,6.1-2.2,12.4-2.1,19.2
		c-0.2,5.7,0.3,11.9,2.1,17.8c2.5,8.4,7.7,12.1,17.1,12.3c10.6,0.2,15.9-2.7,18.6-11.4C1035.9,772.1,1035.7,759.1,1032.2,746.4z
		 M1024.1,781.4c-1.2,5-4.5,7.5-9.7,7.5c-5.3,0-8.4-2.5-9.8-7.4c-1.7-5.7-1.8-11.5-1.7-17.3c-0.1-4.8-0.1-9.7,1.2-14.4
		c1.6-5.6,4.8-8,10.5-7.9c5.3,0.1,8.8,2.4,10,7.9C1026.8,760.3,1026.7,770.9,1024.1,781.4z"/>
	<path class="st2" d="M1097,745.9c-3-7.9-8.7-11.4-18.5-11.2c-9.1,0.2-14.9,3.7-17.2,11.7c-3.6,12.7-3.5,25.7,0.1,38.4
		c2.3,8.1,7.8,11.3,17.2,11.4c10,0.1,15.1-2.9,18.2-10.8c2.5-6.5,2.4-13.4,2.6-19.9C1099,758.7,1099.4,752.1,1097,745.9z
		 M1088.7,782.5c-1.2,4.5-4.7,6.5-9.4,6.5c-4.7,0-7.9-1.9-9.5-6.4c-2.1-5.8-1.8-11.7-2-18.3c0.2-4.4-0.3-9.4,1.1-14.2
		c1.6-5.5,4.5-8,9.8-8.1c5.9-0.2,9.2,1.8,10.6,7.6C1092,760.5,1091.6,771.6,1088.7,782.5z"/>
	<path class="st2" d="M700.1,747.8c-2.4-9.5-8.4-13.3-19.1-13.1c-9.9,0.2-15.6,4.7-18,14.1c-1.4,5.4-1.2,10.9-1.4,16.4
		c0,6.5,0,13,2.2,19.3c2.9,8.5,7.9,11.8,18,11.8c10,0,15.3-3.3,17.8-11.9C703.2,772.2,703.1,759.9,700.1,747.8z M692.1,780.2
		c-1.4,6-4.4,8.6-9.8,8.7c-6,0.2-9.1-2-10.5-8.3c-2.3-10-2.6-20.1-0.5-30.1c1.3-6,4.8-8.6,10.5-8.6c5.9,0,8.7,2.3,10.4,8.6
		c0.3,1.1,0.6,2.2,0.7,3.4c0.3,3.6,0.4,7.3,0.5,9.1C693.1,770,693.3,775.1,692.1,780.2z"/>
	<path class="st2" d="M179.3,765.2c-0.1-6.3,0-12.6-2.2-18.7c-2.9-8-7.9-11.6-17.1-11.8c-9.9-0.2-16.1,3-18.5,11.1
		c-3.9,13.2-4,26.7,0.3,39.8c2.6,8,8.2,10.8,18.3,10.6c9.4-0.2,14-3.3,16.9-11.2C179.2,778.5,179.3,771.9,179.3,765.2z M171,764
		c-0.2,5.8-0.3,11.6-1.8,17.3c-1.3,4.8-4.2,7.7-9.6,7.7c-5.6,0-8.9-1.9-10.2-7.5c-2.4-10.3-2.8-20.7-0.5-31.1
		c1.4-6.3,4.5-8.5,10.4-8.5c5.7,0,9,2.6,10.4,8.7C170.7,755,171.1,759.5,171,764z"/>
	<path class="st2" d="M246.2,762.7c-0.1-3.7,0.1-10-2.1-16.1c-2.9-8-7.9-11.6-17-11.8c-9.9-0.2-16.1,2.9-18.5,11
		c-3.9,13.2-4,26.7,0.2,39.8c2.6,8,8.2,10.8,18.2,10.6c9.3-0.2,14.1-3.4,16.9-11.2C246.2,778.6,246.3,771.9,246.2,762.7z M237.9,764
		c-0.2,5.8-0.3,11.6-1.8,17.3c-1.3,4.8-4.2,7.7-9.6,7.7c-5.6,0-8.9-2-10.2-7.5c-2.4-10.3-2.8-20.7-0.5-31.1
		c1.4-6.3,4.5-8.5,10.5-8.5c5.7,0,9,2.6,10.4,8.7C237.7,755,238.1,759.5,237.9,764z"/>
</g>
</svg>
